<?xml version="1.0" encoding="UTF-8" standalone="no"?>
<!-- Created with Inkscape (http://www.inkscape.org/) -->

<svg
   version="1.1"
   id="svg1"
   width="558"
   height="333"
   viewBox="0 0 558 333"
   sodipodi:docname="IA-logo-1111.svg"
   inkscape:version="1.3 (0e150ed6c4, 2023-07-21)"
   xmlns:inkscape="http://www.inkscape.org/namespaces/inkscape"
   xmlns:sodipodi="http://sodipodi.sourceforge.net/DTD/sodipodi-0.dtd"
   xmlns="http://www.w3.org/2000/svg"
   xmlns:svg="http://www.w3.org/2000/svg">
  <defs
     id="defs1" />
  <sodipodi:namedview
     id="namedview1"
     pagecolor="#ffffff"
     bordercolor="#000000"
     borderopacity="0.25"
     inkscape:showpageshadow="2"
     inkscape:pageopacity="0.0"
     inkscape:pagecheckerboard="0"
     inkscape:deskcolor="#d1d1d1"
     inkscape:zoom="1.1666667"
     inkscape:cx="127.28571"
     inkscape:cy="207"
     inkscape:window-width="1920"
     inkscape:window-height="991"
     inkscape:window-x="-9"
     inkscape:window-y="-9"
     inkscape:window-maximized="1"
     inkscape:current-layer="g1" />
  <g
     inkscape:groupmode="layer"
     inkscape:label="Image"
     id="g1">
    <g
       id="g77"
       transform="translate(4.2857144,-11.999996)">
      <path
         style="fill:#e9eaea"
         d="m 150.25,280.31067 c 0.9625,-0.25152 2.5375,-0.25152 3.5,0 0.9625,0.25153 0.175,0.45733 -1.75,0.45733 -1.925,0 -2.7125,-0.2058 -1.75,-0.45733 z m 91.5,0.027 c 0.6875,-0.27741 1.8125,-0.27741 2.5,0 0.6875,0.27741 0.125,0.50439 -1.25,0.50439 -1.375,0 -1.9375,-0.22698 -1.25,-0.50439 z m 26,0 c 0.6875,-0.27741 1.8125,-0.27741 2.5,0 0.6875,0.27741 0.125,0.50439 -1.25,0.50439 -1.375,0 -1.9375,-0.22698 -1.25,-0.50439 z m 54,0 c 0.6875,-0.27741 1.8125,-0.27741 2.5,0 0.6875,0.27741 0.125,0.50439 -1.25,0.50439 -1.375,0 -1.9375,-0.22698 -1.25,-0.50439 z m 25.51903,-0.0307 c 0.97297,-0.25354 2.32297,-0.23687 3,0.0371 0.67703,0.27393 -0.11903,0.48137 -1.76903,0.46099 -1.65,-0.0204 -2.20394,-0.2445 -1.23097,-0.49804 z m 27.98097,0.004 c 0.9625,-0.25152 2.5375,-0.25152 3.5,0 0.9625,0.25153 0.175,0.45733 -1.75,0.45733 -1.925,0 -2.7125,-0.2058 -1.75,-0.45733 z M 237,279.60699 c 0,-0.21616 0.69837,-0.661 1.55194,-0.98855 0.88992,-0.34149 1.29132,-0.17385 0.94098,0.39301 C 238.90566,279.96166 237,280.4169 237,279.60699 Z m 25.63244,-0.3927 c -0.26708,-0.43215 0.34832,-0.78572 1.36756,-0.78572 1.01924,0 1.63464,0.35357 1.36756,0.78572 C 265.10049,279.64643 264.48508,280 264,280 c -0.48508,0 -1.10049,-0.35357 -1.36756,-0.78571 z m 54,0 c -0.26708,-0.43215 0.34832,-0.78572 1.36756,-0.78572 1.01924,0 1.63464,0.35357 1.36756,0.78572 C 319.10049,279.64643 318.48508,280 318,280 c -0.48508,0 -1.10049,-0.35357 -1.36756,-0.78571 z m 9.76625,-0.46429 c -0.39564,-0.6875 -0.35419,-0.91949 0.0921,-0.51554 0.44629,0.40395 1.44327,-0.0461 2.21549,-1 1.25989,-1.55638 1.29209,-1.50345 0.31369,0.51554 -1.25356,2.5868 -1.6263,2.729 -2.62129,1 z m 16.41381,0.56689 c 0.72187,-0.28887 1.58438,-0.25335 1.91667,0.0789 0.33229,0.33229 -0.25834,0.56864 -1.3125,0.52522 -1.16495,-0.048 -1.4019,-0.28494 -0.60417,-0.60416 z M 371.5,279 c 0.33992,-0.55 0.81648,-1 1.05902,-1 0.24254,0 0.44098,0.45 0.44098,1 0,0.55 -0.47656,1 -1.05902,1 -0.58246,0 -0.7809,-0.45 -0.44098,-1 z M 88.8125,278.31689 c 0.721875,-0.28887 1.584375,-0.25335 1.916667,0.0789 0.332291,0.33229 -0.258334,0.56864 -1.3125,0.52522 -1.164943,-0.048 -1.4019,-0.28494 -0.604167,-0.60416 z m 7,0 c 0.721875,-0.28887 1.584375,-0.25335 1.916667,0.0789 0.332291,0.33229 -0.258334,0.56864 -1.3125,0.52522 -1.164943,-0.048 -1.4019,-0.28494 -0.604167,-0.60416 z m 9.74514,-0.22363 c -0.30822,-0.49871 0.34022,-0.67122 1.44098,-0.38337 2.33499,0.61061 2.63015,1.29011 0.5604,1.29011 -0.79254,0 -1.69316,-0.40803 -2.00138,-0.90674 z M 111,278.61663 c 0,-0.21085 0.90062,-0.61888 2.00138,-0.90674 1.10076,-0.28785 1.7492,-0.11534 1.44098,0.38337 C 113.90411,278.96417 111,279.4057 111,278.61663 Z m 47.60301,-0.44996 c -0.28327,-0.45834 0.12038,-0.83334 0.89699,-0.83334 0.77661,0 1.18026,0.375 0.89699,0.83334 C 160.11373,278.625 159.71008,279 159.5,279 c -0.21008,0 -0.61373,-0.375 -0.89699,-0.83333 z m 21.85587,-0.2332 c -0.36253,-0.58659 -0.44468,-1.281 -0.18255,-1.54313 0.26212,-0.26213 0.74306,0.21781 1.06875,1.06653 0.67618,1.76211 0.0999,2.07206 -0.8862,0.4766 z m 21.35362,0.38342 c 0.72187,-0.28887 1.58437,-0.25335 1.91667,0.0789 0.33229,0.33229 -0.25834,0.56864 -1.3125,0.52522 -1.16495,-0.048 -1.4019,-0.28494 -0.60417,-0.60416 z m 84,0 c 0.72187,-0.28887 1.58438,-0.25335 1.91667,0.0789 0.33229,0.33229 -0.25834,0.56864 -1.3125,0.52522 -1.16495,-0.048 -1.4019,-0.28494 -0.60417,-0.60416 z m 8.45125,-0.0345 c 1.52006,-0.22986 3.77006,-0.22371 5,0.0136 1.22994,0.23736 -0.0138,0.42542 -2.76375,0.41792 -2.75,-0.008 -3.75631,-0.20172 -2.23625,-0.43157 z m 103.29389,-0.18916 c -0.30822,-0.49871 0.34022,-0.67122 1.44098,-0.38337 2.33499,0.61061 2.63015,1.29011 0.5604,1.29011 -0.79254,0 -1.69316,-0.40803 -2.00138,-0.90674 z m 8.25486,0.22363 c 0.72187,-0.28887 1.58438,-0.25335 1.91667,0.0789 0.33229,0.33229 -0.25834,0.56864 -1.3125,0.52522 -1.16495,-0.048 -1.4019,-0.28494 -0.60417,-0.60416 z m 30,0 c 0.72187,-0.28887 1.58438,-0.25335 1.91667,0.0789 0.33229,0.33229 -0.25834,0.56864 -1.3125,0.52522 -1.16495,-0.048 -1.4019,-0.28494 -0.60417,-0.60416 z m 10,0 c 0.72187,-0.28887 1.58438,-0.25335 1.91667,0.0789 0.33229,0.33229 -0.25834,0.56864 -1.3125,0.52522 -1.16495,-0.048 -1.4019,-0.28494 -0.60417,-0.60416 z m 4,0 c 0.72187,-0.28887 1.58438,-0.25335 1.91667,0.0789 0.33229,0.33229 -0.25834,0.56864 -1.3125,0.52522 -1.16495,-0.048 -1.4019,-0.28494 -0.60417,-0.60416 z m 12,0 c 0.72187,-0.28887 1.58438,-0.25335 1.91667,0.0789 0.33229,0.33229 -0.25834,0.56864 -1.3125,0.52522 -1.16495,-0.048 -1.4019,-0.28494 -0.60417,-0.60416 z M 90.365231,265.5 c 0.0026,-5.5 0.170532,-7.62242 0.373173,-4.71648 0.202642,2.90594 0.200512,7.40594 -0.0047,10 C 90.528425,273.37758 90.362627,271 90.365231,265.5 Z m 201.920779,5 c 0.008,-2.75 0.20172,-3.75631 0.43157,-2.23625 0.22986,1.52006 0.22371,3.77006 -0.0136,5 -0.23736,1.22994 -0.42542,-0.0138 -0.41792,-2.76375 z m -183.93105,-5 c -0.003,-4.95 0.16605,-7.10108 0.37577,-4.78017 0.20972,2.3209 0.21222,6.3709 0.006,9 C 108.5296,272.34892 108.358,270.45 108.35496,265.5 Z M 338,272.05902 c 0,-0.51754 0.44485,-1.21592 0.98855,-1.55194 0.56686,-0.35034 0.7345,0.0511 0.39301,0.94098 C 338.71677,273.18048 338,273.49745 338,272.05902 Z m -93.49292,-1.04757 c -0.35034,-0.56686 0.0511,-0.7345 0.94098,-0.39301 1.73242,0.66479 2.04939,1.38156 0.61096,1.38156 -0.51754,0 -1.21592,-0.44485 -1.55194,-0.98855 z M 260,271 c -0.90129,-0.58246 -1.02463,-0.97549 -0.30902,-0.98469 0.65504,-0.008 1.4691,0.43469 1.80902,0.98469 0.7673,1.24153 0.42112,1.24153 -1.5,0 z m 62.55887,-0.5318 C 321.49125,269.66069 321.09865,269 321.68643,269 c 0.58777,0 1.62888,0.675 2.31357,1.5 1.5572,1.87632 1.06734,1.86551 -1.44113,-0.0318 z m -54.41563,-0.35851 c -0.94581,-0.5993 -1.02153,-1.06688 -0.25,-1.54371 C 268.50196,268.18977 269,268.38508 269,269 c 0,0.61492 0.45,0.83992 1,0.5 0.55,-0.33992 1,-0.14148 1,0.44098 0,1.27312 -1.01881,1.33329 -2.85676,0.16871 z M 241.5,269 c 0.33992,-0.55 0.81648,-1 1.05902,-1 0.24254,0 0.44098,0.45 0.44098,1 0,0.55 -0.47656,1 -1.05902,1 -0.58246,0 -0.7809,-0.45 -0.44098,-1 z m 21.95888,-1.06653 c -0.36253,-0.58659 -0.38909,-1.33659 -0.059,-1.66667 0.33008,-0.33007 0.60014,-0.0486 0.60014,0.62555 0,0.67413 0.45,0.94757 1,0.60765 0.55,-0.33992 1,-0.14148 1,0.44098 0,1.37306 -1.69097,1.36806 -2.54112,-0.008 z M 318.5,268 c 0.33992,-0.55 0.81648,-1 1.05902,-1 0.24254,0 0.44098,0.45 0.44098,1 0,0.55 -0.47656,1 -1.05902,1 -0.58246,0 -0.7809,-0.45 -0.44098,-1 z m 26,0 c 0.33992,-0.55 0.81648,-1 1.05902,-1 0.24254,0 0.44098,0.45 0.44098,1 0,0.55 -0.47656,1 -1.05902,1 -0.58246,0 -0.7809,-0.45 -0.44098,-1 z M 294,267.61658 c 0,-0.21089 1.125,-0.59848 2.5,-0.86133 1.375,-0.26285 2.5,-0.0903 2.5,0.38342 0,0.47373 -1.125,0.86133 -2.5,0.86133 -1.375,0 -2.5,-0.17254 -2.5,-0.38342 z m 21.60301,-0.44991 c -0.28327,-0.45834 0.12038,-0.83334 0.89699,-0.83334 0.77661,0 1.18026,0.375 0.89699,0.83334 C 317.11373,267.625 316.71008,268 316.5,268 c -0.21008,0 -0.61373,-0.375 -0.89699,-0.83333 z M 363.232,265 c 0,-1.925 0.2058,-2.7125 0.45733,-1.75 0.25152,0.9625 0.25152,2.5375 0,3.5 -0.25153,0.9625 -0.45733,0.175 -0.45733,-1.75 z m -252.15305,-1.91667 c -0.0714,-3.09091 0.50298,-4.07651 0.92275,-1.58333 0.0926,0.55 0.69261,1.64888 1.33334,2.44196 0.88587,1.0965 0.88595,1.27469 3.7e-4,0.74377 -0.64052,-0.38401 -1.3925,-0.13289 -1.67105,0.55804 -0.27856,0.69093 -0.54199,-0.28127 -0.58541,-2.16044 z M 292.29966,259 c 0,-3.025 0.18747,-4.2625 0.41659,-2.75 0.22913,1.5125 0.22913,3.9875 0,5.5 -0.22912,1.5125 -0.41659,0.275 -0.41659,-2.75 z m -60.14177,0 c 0,-1.375 0.22698,-1.9375 0.50439,-1.25 0.27741,0.6875 0.27741,1.8125 0,2.5 -0.27741,0.6875 -0.50439,0.125 -0.50439,-1.25 z m 4.92106,-1.58333 c 0.048,-1.16495 0.28494,-1.4019 0.60416,-0.60417 0.28887,0.72187 0.25335,1.58438 -0.0789,1.91667 -0.3323,0.33229 -0.56864,-0.25834 -0.52522,-1.3125 z M 270.87244,256.25 c -1.24387,-1.58606 -1.2085,-1.62143 0.37756,-0.37756 1.66575,1.30637 2.19548,2.12756 1.37244,2.12756 -0.20765,0 -0.99515,-0.7875 -1.75,-1.75 z m 53.68643,0.2182 C 323.49125,255.66069 323.09865,255 323.68643,255 c 0.58777,0 1.62888,0.675 2.31357,1.5 1.5572,1.87632 1.06734,1.86551 -1.44113,-0.0318 z M 411.5,257 c -0.33992,-0.55 -1.60398,-1.03163 -2.80902,-1.07029 -2.10179,-0.0674 -2.10957,-0.10266 -0.19098,-0.86584 1.1,-0.43756 2.15093,-0.40313 2.33541,0.0765 0.18448,0.47965 0.67198,0.66407 1.08333,0.40984 0.41136,-0.25423 0.74793,0.19296 0.74793,0.99377 0,1.70975 -0.31558,1.8331 -1.16667,0.45601 z m -112.94645,-0.90228 c -1.90308,-0.74474 -1.90122,-0.77354 0.0833,-1.29251 1.30643,-0.34164 2.02979,-0.0451 2.02979,0.83199 0,0.74954 -0.0375,1.33117 -0.0833,1.29251 -0.0458,-0.0387 -0.95923,-0.41305 -2.02978,-0.83199 z M 350,256 c -0.90129,-0.58246 -1.02463,-0.97549 -0.30902,-0.98469 0.65504,-0.008 1.4691,0.43469 1.80902,0.98469 0.7673,1.24153 0.42112,1.24153 -1.5,0 z m 29.14324,0.10969 c -0.83426,-0.52861 -0.97089,-1.09817 -0.35479,-1.47895 0.55109,-0.34059 1.26001,0.0532 1.57538,0.875 0.66263,1.72679 0.60022,1.75767 -1.22059,0.60395 z m -229.33074,-2.7928 c 0.72187,-0.28887 1.58437,-0.25335 1.91667,0.0789 0.33229,0.33229 -0.25834,0.56864 -1.3125,0.52522 -1.16495,-0.048 -1.4019,-0.28494 -0.60417,-0.60416 z m 91,0 c 0.72187,-0.28887 1.58437,-0.25335 1.91667,0.0789 0.33229,0.33229 -0.25834,0.56864 -1.3125,0.52522 -1.16495,-0.048 -1.4019,-0.28494 -0.60417,-0.60416 z m 26,0 c 0.72187,-0.28887 1.58438,-0.25335 1.91667,0.0789 0.33229,0.33229 -0.25834,0.56864 -1.3125,0.52522 -1.16495,-0.048 -1.4019,-0.28494 -0.60417,-0.60416 z m 54,0 c 0.72187,-0.28887 1.58438,-0.25335 1.91667,0.0789 0.33229,0.33229 -0.25834,0.56864 -1.3125,0.52522 -1.16495,-0.048 -1.4019,-0.28494 -0.60417,-0.60416 z m -118.36475,-35.53665 -2.82197,-2.21976 2.43711,-0.68056 c 3.12607,-0.87295 29.25601,-1.05312 34.20099,-0.23582 l 3.76388,0.62209 -3.20816,2.3669 C 233.80117,219.86002 232.77339,220 219.44058,220 c -13.12432,0 -14.37927,-0.16393 -16.99283,-2.21976 z m 59.58227,0.97831 c -4.00171,-2.08622 -6.54333,-6.93509 -9.0161,-17.20076 -1.83267,-7.60832 -2.06481,-9.90251 -1.09816,-10.85278 0.96472,-0.94839 1.08113,-0.61937 0.54659,1.54499 -0.42434,1.71818 -0.27506,2.75 0.39786,2.75 0.59236,0 0.818,0.675 0.50142,1.5 -0.31659,0.825 -0.0471,1.5 0.59877,1.5 0.7193,0 0.9284,0.77501 0.5396,2 -0.35594,1.12148 -0.1797,2 0.40123,2 0.5698,0 0.77698,0.675 0.4604,1.5 -0.31659,0.825 -0.0509,1.5 0.5904,1.5 0.6413,0 0.88789,0.45 0.54797,1 -0.33992,0.55 -0.26663,1.5625 0.16286,2.25 0.4295,0.6875 0.87487,1.87131 0.98972,2.6307 0.44341,2.93183 2.48766,3.31244 17.04997,3.1744 8.19839,-0.0777 16.76283,0.15559 19.03208,0.51846 l 4.12591,0.65976 -1.98487,2.13334 c -1.82671,1.96334 -3.15595,2.1551 -16.68028,2.40645 -10.50561,0.19525 -15.3996,-0.094 -17.16537,-1.01456 z M 324,219.29056 c -0.825,-0.30334 -2.33046,-1.27644 -3.34548,-2.16244 -1.77831,-1.55228 -1.76011,-1.63489 0.5,-2.26983 3.09373,-0.86914 31.65632,-0.85138 34.78259,0.0216 l 2.43711,0.68056 -2.82197,2.21976 c -2.61463,2.05667 -3.82231,2.21396 -16.43711,2.14081 C 331.62681,219.87763 324.825,219.59391 324,219.29056 Z m 35.56429,-6.99743 c -0.54268,-1.4252 -0.42782,-1.54006 0.5598,-0.5598 0.68342,0.67834 0.99067,1.48524 0.68278,1.79313 -0.30789,0.30789 -0.86705,-0.24711 -1.24258,-1.23333 z M 357.46533,148 c 0,-28.875 0.12777,-40.6875 0.28394,-26.25 0.15616,14.4375 0.15616,38.0625 0,52.5 -0.15617,14.4375 -0.28394,2.625 -0.28394,-26.25 z M 201.76645,142.90424 C 201.6199,112.05157 201.8375,86.600017 202.25,86.345225 202.6625,86.090432 203,111.33352 203,142.44098 203,173.54844 202.7824,199 202.51645,199 c -0.26596,0 -0.60346,-25.24309 -0.75,-56.09576 z m 47.79377,43.3982 c -0.42154,-2.46336 -0.29042,-4.94222 0.31737,-6 0.78774,-1.37098 0.88899,-0.86756 0.42296,2.10304 -0.44281,2.82261 -0.29215,3.70736 0.54338,3.19098 1.30941,-0.80926 1.37221,9.9e-4 0.22504,2.90354 -0.64315,1.6273 -0.92431,1.21779 -1.50875,-2.19756 z m 70.57339,-2.39745 C 319.87167,178.81756 317.58555,178 303.6216,178 c -9.01145,0 -13.51876,0.41258 -15.45697,1.41487 -2.44758,1.26569 -2.75435,1.23933 -2.90958,-0.25 -0.0954,-0.91568 -0.45143,-3.01487 -0.7911,-4.66487 l -0.61756,-3 H 302.92319 322 l -0.0876,2.5 c -0.15205,4.33912 -1.63903,12.61922 -1.77878,9.90499 z M 248.16997,176 c -0.0162,-1.375 0.35734,-3.4 0.83003,-4.5 l 0.85943,-2 -0.0294,2 c -0.0162,1.1 -0.38968,3.125 -0.83003,4.5 l -0.80064,2.5 z m -0.91779,-12.5 c 0.0111,-2.2 0.21589,-2.98225 0.45508,-1.73834 0.23919,1.24391 0.23011,3.04391 -0.0202,4 -0.25029,0.95609 -0.446,-0.0617 -0.4349,-2.26166 z m 1.82677,-22.08333 c 0.048,-1.16495 0.28494,-1.4019 0.60416,-0.60417 0.28887,0.72187 0.25335,1.58437 -0.0789,1.91667 -0.3323,0.33229 -0.56864,-0.25834 -0.52522,-1.3125 z m 35.49197,-0.0925 c -0.35126,-0.91537 -0.10785,-1.99237 0.54093,-2.39334 0.64877,-0.40096 0.90867,-1.43503 0.57754,-2.29792 -0.33112,-0.8629 -0.16436,-1.83941 0.3706,-2.17002 0.53495,-0.33062 0.68264,-1.07034 0.32821,-1.64383 -0.35444,-0.57349 -0.14814,-1.34943 0.45843,-1.72431 0.60658,-0.37489 1.30579,-1.78707 1.55381,-3.1382 0.24802,-1.35112 0.53767,-2.68159 0.64367,-2.95659 0.106,-0.275 0.13944,-0.8375 0.0743,-1.25 -0.0651,-0.4125 0.35814,-0.75 0.9406,-0.75 0.58246,0 0.7809,-0.45 0.44098,-1 -0.33992,-0.55 -0.19026,-1 0.33257,-1 0.52284,0 1.21858,-1.06765 1.54609,-2.37256 0.94324,-3.75816 9.66396,-12.31646 14.91872,-14.64086 2.63855,-1.16715 6.92262,-2.45804 9.52015,-2.86865 l 4.72279,-0.74657 -0.31298,17.06432 c -0.39999,21.80821 -0.91617,25.08975 -1.09116,6.93676 -0.15317,-15.89017 -0.62433,-17.04174 -6.57732,-16.0757 -5.17362,0.83956 -13.74886,6.83186 -17.93242,12.53101 -3.91687,5.33591 -8.62643,15.75982 -8.62643,19.0934 0,2.5826 -1.61786,3.51711 -2.42908,1.4031 z M 238.16004,86.831787 c -0.088,-1.467516 -0.45127,-3.492516 -0.80722,-4.5 -0.49621,-1.404476 -0.36258,-1.569856 0.57284,-0.708945 0.68497,0.630408 1.03898,2.603931 0.80722,4.5 -0.33557,2.745263 -0.44275,2.877913 -0.57284,0.708945 z M 200,83.559017 c 0,-1.342541 0.36858,-2.668775 0.81906,-2.947187 0.45048,-0.278413 0.6244,0.82003 0.3865,2.440983 C 200.68102,86.626701 200,86.912657 200,83.559017 Z"
         id="path88" />
      <path
         style="fill:#d0e3ea"
         d="m 126.8125,278.31689 c 0.72187,-0.28887 1.58437,-0.25335 1.91667,0.0789 0.33229,0.33229 -0.25834,0.56864 -1.3125,0.52522 -1.16495,-0.048 -1.4019,-0.28494 -0.60417,-0.60416 z m 56,0 c 0.72187,-0.28887 1.58437,-0.25335 1.91667,0.0789 0.33229,0.33229 -0.25834,0.56864 -1.3125,0.52522 -1.16495,-0.048 -1.4019,-0.28494 -0.60417,-0.60416 z m 37.9375,0.0208 c 0.6875,-0.27741 1.8125,-0.27741 2.5,0 0.6875,0.27741 0.125,0.50439 -1.25,0.50439 -1.375,0 -1.9375,-0.22698 -1.25,-0.50439 z m 196,0 c 0.6875,-0.27741 1.8125,-0.27741 2.5,0 0.6875,0.27741 0.125,0.50439 -1.25,0.50439 -1.375,0 -1.9375,-0.22698 -1.25,-0.50439 z m 15,0 c 0.6875,-0.27741 1.8125,-0.27741 2.5,0 0.6875,0.27741 0.125,0.50439 -1.25,0.50439 -1.375,0 -1.9375,-0.22698 -1.25,-0.50439 z m 33,0 c 0.6875,-0.27741 1.8125,-0.27741 2.5,0 0.6875,0.27741 0.125,0.50439 -1.25,0.50439 -1.375,0 -1.9375,-0.22698 -1.25,-0.50439 z M 236.46731,142.5 c -1.4e-4,-30.8 0.12671,-43.54445 0.28191,-28.321 0.15519,15.22345 0.15531,40.42345 2.6e-4,56 -0.15504,15.57655 -0.28202,3.121 -0.28217,-27.679 z M 293.75,171.25493 c 5.0875,-0.18149 13.4125,-0.18149 18.5,0 5.0875,0.18149 0.925,0.32999 -9.25,0.32999 -10.175,0 -14.3375,-0.1485 -9.25,-0.32999 z m 25.0625,-70.93804 c 0.72187,-0.28887 1.58438,-0.25335 1.91667,0.0789 0.33229,0.3323 -0.25834,0.56864 -1.3125,0.52522 -1.16495,-0.048 -1.4019,-0.28494 -0.60417,-0.60416 z M 208.19458,71.254349 c 5.88201,-0.176488 15.78201,-0.177107 22,-0.0014 6.21798,0.175733 1.40542,0.320132 -10.69458,0.320888 -12.1,7.56e-4 -17.18744,-0.143025 -11.30542,-0.319513 z M 320.75,69.294267 c 1.2375,-0.238353 3.2625,-0.238353 4.5,0 1.2375,0.238353 0.225,0.433369 -2.25,0.433369 -2.475,0 -3.4875,-0.195016 -2.25,-0.433369 z"
         id="path87" />
      <path
         style="fill:#cfd0d0"
         d="m 405.25218,271.5 c 0.0111,-2.2 0.21589,-2.98225 0.45508,-1.73834 0.23919,1.24391 0.23011,3.04391 -0.0202,4 -0.25029,0.95609 -0.446,-0.0617 -0.4349,-2.26166 z m 0.0679,-11.5 c 0,-3.575 0.1815,-5.0375 0.40333,-3.25 0.22182,1.7875 0.22182,4.7125 0,6.5 -0.22183,1.7875 -0.40333,0.325 -0.40333,-3.25 z m -262.24112,2.41667 c 0.048,-1.16495 0.28494,-1.4019 0.60416,-0.60417 0.28887,0.72187 0.25335,1.58438 -0.0789,1.91667 -0.3323,0.33229 -0.56864,-0.25834 -0.52522,-1.3125 z m 52.32556,-9.26216 c 0.4864,-0.78702 -0.49891,-1.20545 -3.09549,-1.31455 l -3.80902,-0.16003 3.37716,-0.41281 c 3.64032,-0.44497 6.16479,0.97088 4.05546,2.27452 -0.80038,0.49466 -0.98806,0.35708 -0.52811,-0.38713 z m 257.09112,-0.16157 c -0.89896,-1.45456 1.70744,-2.18685 6.14921,-1.72768 3.61646,0.37386 3.5574,0.40894 -0.95386,0.56664 -2.91485,0.10189 -4.56558,0.56198 -4.19098,1.1681 0.33992,0.55 0.39303,1 0.11803,1 -0.275,0 -0.78008,-0.45318 -1.1224,-1.00706 z M 93.5,252 l -5,-0.68579 4.690983,-0.15711 C 95.771024,251.0707 98.160081,251.45 98.5,252 c 0.339919,0.55 0.478976,0.9293 0.309017,0.8429 C 98.639058,252.75649 96.25,252.37719 93.5,252 Z m 191.39211,-0.2969 c 0.44093,-0.43829 4.13308,-0.65915 8.20479,-0.49078 l 7.4031,0.30612 -8.20479,0.49078 c -4.51264,0.26993 -7.84403,0.13218 -7.4031,-0.30612 z M 107.8125,251.31689 c 0.72187,-0.28887 1.58437,-0.25335 1.91667,0.0789 0.33229,0.33229 -0.25834,0.56864 -1.3125,0.52522 -1.16495,-0.048 -1.4019,-0.28494 -0.60417,-0.60416 z m 17.94916,-0.0241 c 1.24391,-0.23919 3.04391,-0.23011 4,0.0202 0.95609,0.25029 -0.0617,0.446 -2.26166,0.4349 -2.2,-0.0111 -2.98225,-0.21589 -1.73834,-0.45508 z m 47.50209,-0.0103 c 1.52006,-0.22986 3.77006,-0.22371 5,0.0136 1.22994,0.23736 -0.0137,0.42542 -2.76375,0.41792 -2.75,-0.008 -3.75631,-0.20172 -2.23625,-0.43157 z m 38,0 c 1.52006,-0.22986 3.77006,-0.22371 5,0.0136 1.22994,0.23736 -0.0137,0.42542 -2.76375,0.41792 -2.75,-0.008 -3.75631,-0.20172 -2.23625,-0.43157 z m 189.50416,-0.007 c 1.79735,-0.22256 4.49735,-0.21797 6,0.0102 1.50265,0.22818 0.0321,0.41027 -3.26791,0.40466 -3.3,-0.006 -4.52944,-0.1923 -2.73209,-0.41486 z m 30.49584,0.007 c 1.52006,-0.22986 3.77006,-0.22371 5,0.0136 1.22994,0.23736 -0.0138,0.42542 -2.76375,0.41792 -2.75,-0.008 -3.75631,-0.20172 -2.23625,-0.43157 z"
         id="path86" />
      <path
         style="fill:#a5cede"
         d="m 198.65225,213.25 c -0.25618,-0.4125 5.90477,-0.63342 13.69099,-0.49093 26.49187,0.4848 29.19834,0.83805 7.96578,1.03969 -11.65504,0.11068 -21.40059,-0.13626 -21.65677,-0.54876 z m 71.09775,0.004 c 5.6375,-0.17825 14.8625,-0.17825 20.5,0 5.6375,0.17825 1.025,0.32409 -10.25,0.32409 -11.275,0 -15.8875,-0.14584 -10.25,-0.32409 z m 58.5,-3.3e-4 c 5.9125,-0.1768 15.5875,-0.1768 21.5,0 5.9125,0.17679 1.075,0.32145 -10.75,0.32145 -11.825,0 -16.6625,-0.14466 -10.75,-0.32145 z m -92.17105,-13.83712 c 0.048,-1.16495 0.28494,-1.4019 0.60416,-0.60417 0.28887,0.72187 0.25335,1.58437 -0.0789,1.91667 -0.3323,0.33229 -0.56864,-0.25834 -0.52522,-1.3125 z M 355.4686,141 c 0,-32.175 0.12636,-45.3375 0.2808,-29.25 0.15445,16.0875 0.15445,42.4125 0,58.5 -0.15444,16.0875 -0.2808,2.925 -0.2808,-29.25 z M 249.232,165 c 0,-1.925 0.2058,-2.7125 0.45733,-1.75 0.25152,0.9625 0.25152,2.5375 0,3.5 -0.25153,0.9625 -0.45733,0.175 -0.45733,-1.75 z m -0.0741,-19 c 0,-1.375 0.22698,-1.9375 0.50439,-1.25 0.27741,0.6875 0.27741,1.8125 0,2.5 -0.27741,0.6875 -0.50439,0.125 -0.50439,-1.25 z m 73,-37 c 0,-1.375 0.22698,-1.9375 0.50439,-1.25 0.27741,0.6875 0.27741,1.8125 0,2.5 -0.27741,0.6875 -0.50439,0.125 -0.50439,-1.25 z M 270,93.622445 c 0,-0.207656 0.7875,-0.995156 1.75,-1.75 1.58606,-1.243871 1.62143,-1.208501 0.37756,0.377555 C 270.82119,93.915748 270,94.445479 270,93.622445 Z m -33.92105,-8.205778 c 0.048,-1.164943 0.28494,-1.4019 0.60416,-0.604167 0.28887,0.721875 0.25335,1.584375 -0.0789,1.916667 -0.3323,0.332291 -0.56864,-0.258334 -0.52522,-1.3125 z"
         id="path85" />
      <path
         style="fill:#afafaf"
         d="m 400.36996,265 c 0,-5.775 0.16528,-8.1375 0.36728,-5.25 0.202,2.8875 0.202,7.6125 0,10.5 -0.202,2.8875 -0.36728,0.525 -0.36728,-5.25 z m -272.03375,-1 c 0,-4.125 0.17651,-5.8125 0.39226,-3.75 0.21574,2.0625 0.21574,5.4375 0,7.5 -0.21575,2.0625 -0.39226,0.375 -0.39226,-3.75 z m 82.42545,5.29274 c 1.24391,-0.23919 3.04391,-0.23011 4,0.0202 0.95609,0.25029 -0.0617,0.446 -2.26166,0.4349 -2.2,-0.0111 -2.98225,-0.21589 -1.73834,-0.45508 z m 244,0 c 1.24391,-0.23919 3.04391,-0.23011 4,0.0202 0.95609,0.25029 -0.0617,0.446 -2.26166,0.4349 -2.2,-0.0111 -2.98225,-0.21589 -1.73834,-0.45508 z M 385.15789,267 c 0,-1.375 0.22698,-1.9375 0.50439,-1.25 0.27741,0.6875 0.27741,1.8125 0,2.5 -0.27741,0.6875 -0.50439,0.125 -0.50439,-1.25 z m 22.65461,1.31689 c 0.72187,-0.28887 1.58438,-0.25335 1.91667,0.0789 0.33229,0.33229 -0.25834,0.56864 -1.3125,0.52522 -1.16495,-0.048 -1.4019,-0.28494 -0.60417,-0.60416 z m -17.73355,-2.90022 c 0.048,-1.16495 0.28494,-1.4019 0.60416,-0.60417 0.28887,0.72187 0.25335,1.58438 -0.0789,1.91667 -0.33229,0.33229 -0.56864,-0.25834 -0.52522,-1.3125 z m 17.67105,0.92105 c 0.6875,-0.27741 1.8125,-0.27741 2.5,0 0.6875,0.27741 0.125,0.50439 -1.25,0.50439 -1.375,0 -1.9375,-0.22698 -1.25,-0.50439 z m -149.67105,-7.92105 c 0.048,-1.16495 0.28494,-1.4019 0.60416,-0.60417 0.28887,0.72187 0.25335,1.58438 -0.0789,1.91667 -0.33229,0.33229 -0.56864,-0.25834 -0.52522,-1.3125 z m 84,-1 c 0.048,-1.16495 0.28494,-1.4019 0.60416,-0.60417 0.28887,0.72187 0.25335,1.58438 -0.0789,1.91667 -0.33229,0.33229 -0.56864,-0.25834 -0.52522,-1.3125 z"
         id="path84" />
      <path
         style="fill:#59accd"
         d="m 355.07895,200.41667 c 0.048,-1.16495 0.28494,-1.4019 0.60416,-0.60417 0.28887,0.72187 0.25335,1.58437 -0.0789,1.91667 -0.33229,0.33229 -0.56864,-0.25834 -0.52522,-1.3125 z M 322.39739,185 c 0,-7.975 0.1553,-11.2375 0.34512,-7.25 0.18981,3.9875 0.18981,10.5125 0,14.5 -0.18982,3.9875 -0.34512,0.725 -0.34512,-7.25 z M 203.46563,142.5 c 1.6e-4,-29.15 0.12787,-40.93084 0.2838,-26.17964 0.15592,14.7512 0.15579,38.6012 -3e-4,53 -0.15609,14.3988 -0.28367,2.32964 -0.2835,-26.82036 z m 46.61332,31.91667 c 0.048,-1.16495 0.28494,-1.4019 0.60416,-0.60417 0.28887,0.72187 0.25335,1.58437 -0.0789,1.91667 -0.3323,0.33229 -0.56864,-0.25834 -0.52522,-1.3125 z M 249.33621,155 c 0,-4.125 0.17651,-5.8125 0.39226,-3.75 0.21574,2.0625 0.21574,5.4375 0,7.5 -0.21575,2.0625 -0.39226,0.375 -0.39226,-3.75 z m 53.38912,-11.73737 19.22533,-0.30564 0.31303,-15.97951 0.31302,-15.97951 -0.0384,16.25102 L 322.5,143.5 303,143.5341 283.5,143.5682 Z M 295,112.68709 c 0,-0.1721 1.4625,-1.6346 3.25,-3.25 l 3.25,-2.93709 -2.93709,3.25 C 295.82513,112.77946 295,113.45965 295,112.68709 Z M 322.25218,103.5 c 0.0111,-2.2 0.21589,-2.98225 0.45508,-1.73834 0.23919,1.24391 0.23011,3.04391 -0.0202,4 -0.25029,0.95609 -0.446,-0.0617 -0.4349,-2.26166 z M 273,90.622445 c 0,-0.207656 0.7875,-0.995156 1.75,-1.75 1.58606,-1.243871 1.62143,-1.208501 0.37756,0.377555 C 273.82119,90.915748 273,91.445479 273,90.622445 Z"
         id="path83" />
      <path
         style="fill:#909090"
         d="m 260.60301,278.16667 c -0.28327,-0.45834 0.12038,-0.83334 0.89699,-0.83334 0.77661,0 1.18026,0.375 0.89699,0.83334 C 262.11373,278.625 261.71008,279 261.5,279 c -0.21008,0 -0.61373,-0.375 -0.89699,-0.83333 z M 95.168103,265.30902 c -0.09246,-6.15504 0.169397,-11.40109 0.581897,-11.65789 0.4125,-0.25679 0.628792,3.20415 0.480649,7.69099 -0.462835,14.01798 -0.887737,15.6043 -1.062546,3.9669 z M 146.87244,274.25 c -1.24387,-1.58606 -1.2085,-1.62143 0.37756,-0.37756 1.66575,1.30637 2.19548,2.12756 1.37244,2.12756 -0.20765,0 -0.99515,-0.7875 -1.75,-1.75 z m 140.12235,-9.45396 c -0.27214,-6.43717 -0.14131,-11.3487 0.29071,-10.9145 0.43203,0.4342 0.65468,5.70099 0.49479,11.70396 L 287.48958,276.5 Z m -158.91584,7.62063 c 0.048,-1.16495 0.28494,-1.4019 0.60416,-0.60417 0.28887,0.72187 0.25335,1.58438 -0.0789,1.91667 -0.3323,0.33229 -0.56864,-0.25834 -0.52522,-1.3125 z m 228,-1 c 0.048,-1.16495 0.28494,-1.4019 0.60416,-0.60417 0.28887,0.72187 0.25335,1.58438 -0.0789,1.91667 -0.33229,0.33229 -0.56864,-0.25834 -0.52522,-1.3125 z m -230.29636,-6.16531 c 0.49306,-10.03472 0.9129,-11.01841 1.06758,-2.50136 0.0824,4.5375 -0.18767,8.25061 -0.60017,8.25136 -0.4125,7.5e-4 -0.62283,-2.58675 -0.46741,-5.75 z m 82.86054,1.98024 c -0.26119,-0.42263 1.28725,-0.60036 3.44099,-0.39497 2.15373,0.20539 3.91588,0.55117 3.91588,0.76841 0,0.74484 -6.88162,0.39553 -7.35687,-0.37344 z M 453,267.60504 c 0,-0.21724 1.76215,-0.56302 3.91588,-0.76841 2.15374,-0.20539 3.70218,-0.0277 3.44099,0.39497 C 459.88162,268.00057 453,268.34988 453,267.60504 Z M 293.75,253.29427 c 1.2375,-0.23836 3.2625,-0.23836 4.5,0 1.2375,0.23835 0.225,0.43337 -2.25,0.43337 -2.475,0 -3.4875,-0.19502 -2.25,-0.43337 z"
         id="path82" />
      <path
         style="fill:#2896c2"
         d="m 203.15789,197 c 0,-1.375 0.22698,-1.9375 0.50439,-1.25 0.27741,0.6875 0.27741,1.8125 0,2.5 -0.27741,0.6875 -0.50439,0.125 -0.50439,-1.25 z m 46.92106,-25.58333 c 0.048,-1.16495 0.28494,-1.4019 0.60416,-0.60417 0.28887,0.72187 0.25335,1.58437 -0.0789,1.91667 -0.3323,0.33229 -0.56864,-0.25834 -0.52522,-1.3125 z M 293.25,170.2545 c 5.3625,-0.17981 14.1375,-0.17981 19.5,0 5.3625,0.17981 0.975,0.32692 -9.75,0.32692 -10.725,0 -15.1125,-0.14711 -9.75,-0.32692 z m 26.5,-70.916781 c 0.6875,-0.277412 1.8125,-0.277412 2.5,0 0.6875,0.277413 0.125,0.504386 -1.25,0.504386 -1.375,0 -1.9375,-0.226973 -1.25,-0.504386 z M 203.15789,88 c 0,-1.375 0.22698,-1.9375 0.50439,-1.25 0.27741,0.6875 0.27741,1.8125 0,2.5 -0.27741,0.6875 -0.50439,0.125 -0.50439,-1.25 z"
         id="path81" />
      <path
         style="fill:#138dbd"
         d="M 200.57349,210.15315 C 203.59027,204.10586 204,196.02178 204,142.54717 204,88.271688 203.51647,79.097724 200.40024,74.25 L 198.95389,72 h 20.54874 20.54873 l -1.77568,3.25 C 236.62712,78.267327 236.5,83.081875 236.5,142.5 c 0,59.41813 0.12712,64.23267 1.77568,67.25 l 1.77568,3.25 H 219.60232 199.15329 Z M 257.45977,204.75 c -6.71104,-21.07382 -9.33418,-50.65369 -6.03701,-68.0764 4.76239,-25.16514 17.69186,-45.46912 36.01123,-56.550782 12.72786,-7.699271 29.45123,-11.275401 43.17966,-9.233551 8.72898,1.298274 17.48175,4.880218 21.63635,8.854361 l 2.75,2.630554 0.0326,60.062908 c 0.0301,55.35891 0.17469,60.47408 1.84633,65.31291 l 1.81369,5.25 h -20.22088 -20.22087 l 2.12454,-4.25 C 322.29153,204.91703 322.5,202.83189 322.5,187.5 v -17 l -19.27307,-0.27167 c -16.9531,-0.23897 -19.34742,-0.0779 -19.8908,1.33811 -1.66429,4.33708 6.7292,27.74344 13.69258,38.18356 l 2.16769,3.25 h -19.55469 -19.5547 z M 323,121.43873 V 98.877454 l -4.75,0.637709 C 302.44816,101.63663 289.63419,115.00634 284.58103,134.64434 281.95407,144.85349 280.27376,144 303,144 h 20 z"
         id="path80" />
      <path
         style="fill:#606060"
         d="m 150.26903,278.30701 c 0.97297,-0.25354 2.32297,-0.23687 3,0.0371 0.67703,0.27393 -0.11903,0.48137 -1.76903,0.46099 -1.65,-0.0204 -2.20394,-0.2445 -1.23097,-0.49804 z m 92.54347,0.01 c 0.72187,-0.28887 1.58437,-0.25335 1.91667,0.0789 0.33229,0.33229 -0.25834,0.56864 -1.3125,0.52522 -1.16495,-0.048 -1.4019,-0.28494 -0.60417,-0.60416 z m 25,0 c 0.72187,-0.28887 1.58438,-0.25335 1.91667,0.0789 0.33229,0.33229 -0.25834,0.56864 -1.3125,0.52522 -1.16495,-0.048 -1.4019,-0.28494 -0.60417,-0.60416 z m 54,0 c 0.72187,-0.28887 1.58438,-0.25335 1.91667,0.0789 0.33229,0.33229 -0.25834,0.56864 -1.3125,0.52522 -1.16495,-0.048 -1.4019,-0.28494 -0.60417,-0.60416 z m 26,0 c 0.72187,-0.28887 1.58438,-0.25335 1.91667,0.0789 0.33229,0.33229 -0.25834,0.56864 -1.3125,0.52522 -1.16495,-0.048 -1.4019,-0.28494 -0.60417,-0.60416 z m 27.9375,0.0208 c 0.6875,-0.27741 1.8125,-0.27741 2.5,0 0.6875,0.27741 0.125,0.50439 -1.25,0.50439 -1.375,0 -1.9375,-0.22698 -1.25,-0.50439 z M 201,277.62244 c 0,-0.20765 0.7875,-0.99515 1.75,-1.75 1.58606,-1.24387 1.62143,-1.2085 0.37756,0.37756 C 201.82119,277.91575 201,278.44548 201,277.62244 Z m 93.76166,-1.3297 c 1.24391,-0.23919 3.04391,-0.23011 4,0.0202 0.95609,0.25029 -0.0617,0.446 -2.26166,0.4349 -2.2,-0.0111 -2.98225,-0.21589 -1.73834,-0.45508 z M 435.1681,265.30902 c -0.0924,-6.15504 0.1694,-11.40109 0.5819,-11.65789 0.4125,-0.25679 0.62879,3.20415 0.48065,7.69099 -0.46284,14.01798 -0.88774,15.6043 -1.06255,3.9669 z M 160.19495,267.5 c 0.0204,-1.65 0.2445,-2.20394 0.49804,-1.23097 0.25354,0.97297 0.23687,2.32297 -0.0371,3 -0.27393,0.67703 -0.48137,-0.11903 -0.46099,-1.76903 z m 207.884,-3.08333 c 0.048,-1.16495 0.28494,-1.4019 0.60416,-0.60417 0.28887,0.72187 0.25335,1.58438 -0.0789,1.91667 -0.33229,0.33229 -0.56864,-0.25834 -0.52522,-1.3125 z m -30,-6 c 0.048,-1.16495 0.28494,-1.4019 0.60416,-0.60417 0.28887,0.72187 0.25335,1.58438 -0.0789,1.91667 -0.33229,0.33229 -0.56864,-0.25834 -0.52522,-1.3125 z m -76,-1 c 0.048,-1.16495 0.28494,-1.4019 0.60416,-0.60417 0.28887,0.72187 0.25335,1.58438 -0.0789,1.91667 -0.33229,0.33229 -0.56864,-0.25834 -0.52522,-1.3125 z m -71.51466,-3.12354 c -0.54268,-1.4252 -0.42782,-1.54006 0.5598,-0.5598 0.68342,0.67834 0.99067,1.48524 0.68278,1.79313 -0.30789,0.30789 -0.86705,-0.24711 -1.24258,-1.23333 z M 239.75,251.33772 c 0.6875,-0.27741 1.8125,-0.27741 2.5,0 0.6875,0.27741 0.125,0.50439 -1.25,0.50439 -1.375,0 -1.9375,-0.22698 -1.25,-0.50439 z m 26,0 c 0.6875,-0.27741 1.8125,-0.27741 2.5,0 0.6875,0.27741 0.125,0.50439 -1.25,0.50439 -1.375,0 -1.9375,-0.22698 -1.25,-0.50439 z m 54,0 c 0.6875,-0.27741 1.8125,-0.27741 2.5,0 0.6875,0.27741 0.125,0.50439 -1.25,0.50439 -1.375,0 -1.9375,-0.22698 -1.25,-0.50439 z m 26.0625,-0.0208 c 0.72187,-0.28887 1.58438,-0.25335 1.91667,0.0789 0.33229,0.33229 -0.25834,0.56864 -1.3125,0.52522 -1.16495,-0.048 -1.4019,-0.28494 -0.60417,-0.60416 z"
         id="path79" />
      <path
         style="fill:#2f2f2f"
         d="m 325.54271,277.0691 c -0.31644,-0.512 -0.19299,-1.1672 0.27431,-1.45601 0.46731,-0.28881 0.84965,0.13009 0.84965,0.9309 0,1.68617 -0.31534,1.83349 -1.12396,0.52511 z M 205,275 c -0.5887,-1.1 -0.84537,-2 -0.57037,-2 0.275,0 0.98167,0.9 1.57037,2 0.5887,1.1 0.84537,2 0.57037,2 -0.275,0 -0.98167,-0.9 -1.57037,-2 z m 225.99479,-9.79604 0.49479,-11.70396 0.29071,10.9145 c 0.15989,6.00297 -0.0628,11.26976 -0.49479,11.70396 -0.43202,0.4342 -0.56285,-4.47733 -0.29071,-10.9145 z M 141.87244,274.25 c -1.24387,-1.58606 -1.2085,-1.62143 0.37756,-0.37756 1.66575,1.30637 2.19548,2.12756 1.37244,2.12756 -0.20765,0 -0.99515,-0.7875 -1.75,-1.75 z M 385,275.62244 c 0,-0.20765 0.7875,-0.99515 1.75,-1.75 1.58606,-1.24387 1.62143,-1.2085 0.37756,0.37756 C 385.82119,275.91575 385,276.44548 385,275.62244 Z m -274.79876,-7.79065 c -0.11068,-4.21752 -0.46022,-8.49252 -0.77675,-9.5 -0.53404,-1.69981 -0.49496,-1.70665 0.54231,-0.095 0.66428,1.03213 0.97943,4.88653 0.77675,9.5 l -0.34106,7.7632 z m 165.87771,3.58488 c 0.048,-1.16495 0.28494,-1.4019 0.60416,-0.60417 0.28887,0.72187 0.25335,1.58438 -0.0789,1.91667 -0.33229,0.33229 -0.56864,-0.25834 -0.52522,-1.3125 z M 313,272 c 0,-0.55 0.47656,-1 1.05902,-1 0.58246,0 0.7809,0.45 0.44098,1 -0.33992,0.55 -0.81648,1 -1.05902,1 C 313.19844,273 313,272.55 313,272 Z m -148.80505,-6.5 c 0.0204,-1.65 0.2445,-2.20394 0.49804,-1.23097 0.25354,0.97297 0.23687,2.32297 -0.0371,3 -0.27393,0.67703 -0.48137,-0.11903 -0.46099,-1.76903 z M 292,265 c 0,-0.55 1.125,-1 2.5,-1 1.375,0 2.5,0.45 2.5,1 0,0.55 -1.125,1 -2.5,1 -1.375,0 -2.5,-0.45 -2.5,-1 z m 47.87244,-1.75 c -1.24387,-1.58606 -1.2085,-1.62143 0.37756,-0.37756 1.66575,1.30637 2.19548,2.12756 1.37244,2.12756 -0.20765,0 -0.99515,-0.7875 -1.75,-1.75 z m 75.20651,-2.83333 c 0.048,-1.16495 0.28494,-1.4019 0.60416,-0.60417 0.28887,0.72187 0.25335,1.58438 -0.0789,1.91667 -0.33229,0.33229 -0.56864,-0.25834 -0.52522,-1.3125 z m -179,-3 c 0.048,-1.16495 0.28494,-1.4019 0.60416,-0.60417 0.28887,0.72187 0.25335,1.58438 -0.0789,1.91667 -0.3323,0.33229 -0.56864,-0.25834 -0.52522,-1.3125 z M 155.87244,255.25 c -1.24387,-1.58606 -1.2085,-1.62143 0.37756,-0.37756 0.9625,0.75485 1.75,1.54235 1.75,1.75 0,0.82304 -0.82119,0.29331 -2.12756,-1.37244 z m 91,0 c -1.24387,-1.58606 -1.2085,-1.62143 0.37756,-0.37756 0.9625,0.75485 1.75,1.54235 1.75,1.75 0,0.82304 -0.82119,0.29331 -2.12756,-1.37244 z m 54,-1 c -1.24387,-1.58606 -1.2085,-1.62143 0.37756,-0.37756 1.66575,1.30637 2.19548,2.12756 1.37244,2.12756 -0.20765,0 -0.99515,-0.7875 -1.75,-1.75 z M 150,251.96862 C 150,251.43588 150.675,251 151.5,251 c 0.825,0 1.5,0.17686 1.5,0.39301 0,0.21616 -0.675,0.65203 -1.5,0.96862 -0.825,0.31658 -1.5,0.13972 -1.5,-0.39301 z M 375.5,252 c -0.33992,-0.55 0.11008,-1 1,-1 0.88992,0 1.33992,0.45 1,1 -0.33992,0.55 -0.78992,1 -1,1 -0.21008,0 -0.66008,-0.45 -1,-1 z"
         id="path78" />
      <path
         style="fill:#020202"
         d="M 89.75,277.33772 C 90.651161,276.97409 91,273.53099 91,265 c 0,-8.53099 -0.348839,-11.97409 -1.25,-12.33772 -0.6875,-0.27741 1,-0.48771 3.75,-0.46733 2.75,0.0204 4.2125,0.24285 3.25,0.49438 -1.537322,0.40174 -1.75,1.83996 -1.75,11.8343 0,9.78026 0.245607,11.52004 1.75,12.39627 1.350746,0.78674 0.609275,1.00821 -3.25,0.97074 -2.75,-0.0267 -4.4375,-0.27551 -3.75,-0.55292 z M 107.25859,276.75 c 1.29107,-0.98354 1.69124,-3.33137 1.87723,-11.0139 0.15708,-6.4882 -0.16154,-10.16182 -0.94972,-10.95 -1.71444,-1.71444 -1.45904,-2.7861 0.66398,-2.7861 1.16596,0 4.7713,3.79022 9.75,10.25 l 7.89992,10.25 0.29232,-8.98247 c 0.24684,-7.58485 0.0226,-9.17969 -1.44113,-10.25 -1.50587,-1.10112 -1.21602,-1.26354 2.20768,-1.23712 3.16288,0.0244 3.59556,0.23168 2.19113,1.04969 -1.489,0.86726 -1.75,2.56907 -1.75,11.41057 0,5.84884 0.43714,10.66146 1,11.00933 1.64625,1.01744 1.13227,2.5 -0.8667,2.5 -1.18134,0 -4.53466,-3.48796 -9.1333,-9.5 -3.99663,-5.225 -7.65661,-9.5 -8.1333,-9.5 -0.47668,0 -0.8667,3.45207 -0.8667,7.67126 0,5.73486 0.41776,8.13287 1.65499,9.5 1.57607,1.74154 1.47158,1.82874 -2.19113,1.82874 -3.28535,0 -3.60688,-0.18225 -2.20527,-1.25 z m 37.35629,-0.8383 c -5.50179,-4.32771 -7.03908,-11.10817 -3.98004,-17.55462 1.66307,-3.50465 6.5375,-6.87111 8.68295,-5.99676 0.65311,0.26616 0.43148,0.51712 -0.49521,0.56073 -2.91575,0.13723 -5.82258,4.9542 -5.82258,9.64871 0,10.63834 6.84651,17.25867 13.92859,13.46846 6.51078,-3.48447 4.23541,-19.32185 -3.2433,-22.57456 l -3.18529,-1.38538 3.35,-0.0391 c 2.50704,-0.0293 4.20554,0.8164 6.75,3.36086 3.09536,3.09536 3.4,3.92662 3.4,9.27749 0,3.70758 -0.5762,6.70014 -1.5607,8.10572 -3.70243,5.28596 -13.00576,6.91885 -17.82442,3.12849 z m 36.96008,0.91221 c -2.63237,-8.31762 -7.91884,-22.53334 -8.75364,-23.53921 -0.84093,-1.01325 -0.14235,-1.28146 3.30624,-1.26939 3.15789,0.0111 3.95578,0.28004 2.87244,0.96833 -1.29454,0.82248 -1.0274,2.32701 1.95038,10.9843 1.89772,5.51721 3.80736,9.67432 4.24367,9.23801 0.4363,-0.4363 2.15537,-4.8229 3.82016,-9.748 2.81963,-8.34155 2.90969,-9.04043 1.31521,-10.20634 C 188.85086,252.17046 189.14647,252 192.5,252 c 3.3319,0 3.64496,0.1772 2.20834,1.25 -0.92066,0.6875 -3.43581,6.425 -5.58924,12.75 -2.58655,7.5972 -4.45998,11.60993 -5.52023,11.82391 -0.8827,0.17815 -1.79346,-0.27185 -2.02391,-1 z M 203.36235,275.75 c 0.77464,-1.2375 2.86453,-6.68975 4.64419,-12.11611 2.65084,-8.08267 2.9879,-10.02312 1.86461,-10.73469 -0.88927,-0.56332 0.28716,-0.87396 3.34747,-0.88389 3.73832,-0.0121 4.60176,0.28921 4.15613,1.45048 -0.70219,1.82988 5.34039,20.40917 7.41016,22.78421 1.42295,1.63282 1.23011,1.74897 -2.87992,1.73469 -2.87208,-0.01 -3.92937,-0.31663 -3.03822,-0.88118 1.11276,-0.70496 1.14481,-1.53839 0.17244,-4.48469 C 217.86569,269.06302 217.75217,269 212.52027,269 c -5.1049,0 -5.37123,0.13371 -6.45417,3.24022 -0.95856,2.74975 -0.86876,3.43091 0.59331,4.5 1.51676,1.10909 1.33837,1.25978 -1.49133,1.25978 -3.08388,0 -3.15709,-0.0912 -1.80573,-2.25 z M 217,267.19417 C 217,266.06336 212.88567,254 212.5,254 c -0.38567,0 -4.5,12.06336 -4.5,13.19417 0,0.44321 2.025,0.80583 4.5,0.80583 2.475,0 4.5,-0.36262 4.5,-0.80583 z m 17.59405,7.52608 c -0.33437,-1.67183 -0.49231,-3.13352 -0.35099,-3.24819 0.14131,-0.11467 1.26185,1.03171 2.49006,2.54751 2.12512,2.6227 2.1421,2.7798 0.351,3.24818 -1.45958,0.38169 -2.01862,-0.19025 -2.49007,-2.5475 z m 8.30239,2.43578 c 4.11425,-0.79468 6.08001,-3.36561 4.51581,-5.90603 -0.59264,-0.9625 -3.71703,-3.1 -6.94309,-4.75 -7.15009,-3.65698 -8.89506,-7.12082 -5.71962,-11.35363 1.76918,-2.35829 2.65287,-2.64638 8.11788,-2.64649 3.37292,-6e-5 6.13258,0.003 6.13258,0.007 0,0.004 0.42437,1.4864 0.94304,3.2949 l 0.94303,3.28817 -2.84424,-3.04478 c -3.80856,-4.07707 -9.49852,-4.33132 -11.2431,-0.50238 -0.9931,2.17962 -0.85102,2.84977 0.99573,4.69651 1.18476,1.18476 4.07365,3.07819 6.41974,4.20761 2.3461,1.12942 4.93593,3.27037 5.75518,4.75766 1.36816,2.4838 1.32014,2.93202 -0.58925,5.5 -1.60197,2.15452 -2.97355,2.83162 -5.97947,2.95186 L 239.5,277.81205 Z M 260.56922,275.5 c -0.97653,-3.604 -0.60483,-3.80834 2.06714,-1.13636 3.30907,3.30906 8.75431,3.64342 10.36364,0.63636 1.65292,-3.08851 -0.3908,-5.7558 -6.47026,-8.44443 -7.55816,-3.34258 -9.73332,-8.35199 -5.47539,-12.60992 1.69345,-1.69345 3.08239,-2.00088 7.9063,-1.75 5.63323,0.29298 5.88932,0.42582 6.85205,3.55435 1.23933,4.02743 0.75377,4.07666 -2.46615,0.25 -4.46374,-5.30485 -12.42637,-3.43849 -10.92091,2.55975 0.46681,1.85992 1.9718,3.16128 5.36167,4.63621 6.55167,2.85063 8.21269,4.55681 8.21269,8.43597 0,4.55408 -3.16789,6.53863 -9.82914,6.15754 -4.07451,-0.23311 -5.16524,-0.6789 -5.60164,-2.28947 z m 25.68078,1.4199 c 1.50543,-0.87683 1.75,-2.6195 1.75,-12.46959 0,-10.1664 -0.19623,-11.4715 -1.75,-11.63928 -0.9625,-0.10393 2.3,-0.44143 7.25,-0.75 9.35124,-0.58293 10.23094,-0.25301 10.42971,3.91148 0.0447,0.93554 -0.49738,0.66204 -1.48641,-0.75 C 301.22899,253.48884 299.90231,253 296.41156,253 h -4.47503 l 0.28173,11.75 0.28174,11.75 4.23032,0.30654 c 3.8392,0.27819 4.42614,8.3e-4 6.34837,-3 1.84126,-2.87442 2.04164,-2.97983 1.53334,-0.80654 -0.3216,1.375 -0.59087,3.0625 -0.59838,3.75 -0.01,0.9157 -2.62118,1.24187 -9.76365,1.21959 -7.11253,-0.0222 -9.27661,-0.30613 -8,-1.04969 z m 28.2659,-0.75169 c -1.37795,-3.55713 -0.44248,-4.38104 1.99187,-1.75433 2.01797,2.17742 3.23867,2.6454 6.25,2.39602 3.55114,-0.29408 3.74223,-0.48862 3.74223,-3.8099 0,-3.24823 -0.3868,-3.6844 -5.377,-6.06343 -8.17911,-3.89932 -10.41255,-8.64702 -6.09763,-12.96194 1.64967,-1.64967 3.13368,-1.98161 8,-1.78942 3.30498,0.13052 5.98073,0.70039 5.98828,1.27537 0.008,0.57168 0.30815,2.16442 0.66808,3.53942 0.61141,2.33571 0.47324,2.28642 -2.10255,-0.75 -2.07744,-2.44895 -3.56754,-3.25 -6.04563,-3.25 -7.4672,0 -7.29519,6.91141 0.25376,10.19596 6.55167,2.85063 8.21269,4.55681 8.21269,8.43597 0,4.56302 -3.16544,6.53806 -9.86881,6.15754 -3.09526,-0.1757 -5.30214,-0.81288 -5.61529,-1.62126 z M 340.54813,277 c -0.14939,-0.275 -0.58689,-1.81512 -0.97222,-3.4225 l -0.7006,-2.92249 2.96355,3.17249 C 346.48383,278.79995 353,277.88129 353,272.254 c 0,-1.84214 -1.08242,-2.8475 -5.03968,-4.68093 C 340.98305,264.34046 339,262.3107 339,258.40172 c 0,-4.0883 3.02693,-6.46195 7.97251,-6.25189 3.38904,0.14395 3.40975,0.16705 0.52749,0.58849 -4.10411,0.60009 -5.65629,2.11582 -5.30056,5.17608 0.23357,2.00928 1.6053,3.27848 6.1541,5.69412 3.21945,1.70969 6.25006,3.73469 6.73469,4.5 1.49702,2.36405 1.00735,5.7959 -1.13225,7.9355 -1.65916,1.65916 -3.08828,1.98866 -7.59013,1.75 C 343.31549,277.63231 340.69752,277.275 340.54813,277 Z M 371.5,277.0546 c -5.20765,-2.13145 -8.19438,-9.6568 -6.44216,-16.23164 1.12889,-4.23591 6.09053,-8.88598 9.26889,-8.68682 l 2.17327,0.13618 -2.14557,0.41969 c -5.48633,1.07315 -7.83743,9.13626 -4.90384,16.81774 2.00883,5.26004 4.74788,7.49021 9.19934,7.49021 5.10905,0 7.65172,-4.01504 7.13298,-11.26344 -0.4447,-6.21372 -2.71657,-10.3325 -6.87931,-12.47182 l -2.4036,-1.23526 2.67327,-0.0147 c 3.72202,-0.0205 8.56567,4.38187 9.96696,9.05896 2.5213,8.41536 -3.30739,16.98685 -11.46696,16.86291 -2.2953,-0.0349 -5.07327,-0.43175 -6.17327,-0.88197 z m 27.75,-0.13474 c 1.50439,-0.87623 1.75,-2.61601 1.75,-12.39627 0,-9.97078 -0.2163,-11.44115 -1.75,-11.89615 -0.9625,-0.28554 1.71467,-0.42344 5.94927,-0.30645 9.46524,0.2615 13.13041,2.39354 13.60426,7.91363 0.23955,2.79069 -0.22292,3.95007 -2.19418,5.50067 l -2.49771,1.96469 2.57443,3.89999 c 1.41594,2.145 3.27683,4.46249 4.13531,5.14999 1.31092,1.04982 0.89473,1.25 -2.59887,1.25 -3.08961,0 -4.02593,-0.34871 -3.63959,-1.35549 0.28608,-0.74552 -0.44749,-2.99552 -1.63016,-5 -1.56313,-2.64931 -2.87427,-3.67619 -4.80154,-3.76051 -1.98054,-0.0867 -2.14528,-0.22299 -0.65122,-0.53894 1.1,-0.23261 3.02842,-0.64298 4.28537,-0.91192 3.12194,-0.668 4.66242,-4.93786 3.12264,-8.65523 C 413.55189,254.50396 411.24074,253 407.56574,253 H 405 v 11.92668 c 0,10.51785 0.20672,11.98069 1.75,12.38399 0.9625,0.25153 -0.725,0.49584 -3.75,0.54292 -4.18584,0.0651 -5.08186,-0.15795 -3.75,-0.93369 z m 31,0 C 431.7473,276.0478 432,274.32658 432,265 c 0,-9.32658 -0.2527,-11.0478 -1.75,-11.9199 -1.35601,-0.78981 -0.62432,-1.01928 3.25,-1.01928 3.87432,0 4.60601,0.22947 3.25,1.01928 -1.4973,0.8721 -1.75,2.59332 -1.75,11.9199 0,9.32658 0.2527,11.0478 1.75,11.9199 1.35601,0.78981 0.62432,1.01928 -3.25,1.01928 -3.87432,0 -4.60601,-0.22947 -3.25,-1.01928 z m 16.50081,-0.1699 c 0.54763,-0.6875 2.70298,-6.12693 4.78967,-12.08763 3.15633,-9.0162 3.55578,-10.9884 2.37674,-11.73469 -0.95387,-0.60377 0.12549,-0.90206 3.3014,-0.91237 3.73832,-0.0121 4.60176,0.28921 4.15613,1.45048 -0.70219,1.82988 5.34039,20.40917 7.41016,22.78421 1.42295,1.63282 1.23011,1.74897 -2.87992,1.73469 -2.87208,-0.01 -3.92937,-0.31663 -3.03822,-0.88118 1.11276,-0.70496 1.14481,-1.53839 0.17244,-4.48469 C 461.86569,269.06302 461.75217,269 456.52027,269 c -5.1049,0 -5.37123,0.13371 -6.45417,3.24022 -0.95856,2.74975 -0.86876,3.43091 0.59331,4.5 1.51282,1.10621 1.31891,1.25978 -1.59073,1.25978 -2.51523,0 -3.07367,-0.30116 -2.31787,-1.25 z M 461,267.19417 C 461,266.06336 456.88567,254 456.5,254 c -0.38567,0 -4.5,12.06336 -4.5,13.19417 0,0.44321 2.025,0.80583 4.5,0.80583 2.475,0 4.5,-0.36262 4.5,-0.80583 z m -161.59398,-1.0114 c -1.74895,-1.46222 -1.87056,-1.9594 -0.73804,-3.01733 1.38375,-1.29262 1.47679,-1.17748 2.89657,3.58456 0.47051,1.57811 0.3786,1.55396 -2.15853,-0.56723 z m 53.8535,-10.23301 c -1.88576,-2.3088 -1.99943,-2.83559 -0.71799,-3.32732 1.01965,-0.39128 1.85305,0.28518 2.52332,2.04814 1.4729,3.87401 0.73887,4.39411 -1.80533,1.27918 z"
         id="path77" />
    </g>
  </g>
</svg>
